<svg xmlns="http://www.w3.org/2000/svg" viewBox="0 0 64 64">
  <rect width="64" height="64" rx="14" fill="#ffffff"/>
  <g transform="translate(9.3 15) scale(0.92)">
    <g id="Group 12">
      <g id="school-fill">
        <path id="Union" d="M37.2393 28.106C37.2393 28.3756 37.1766 28.6417 37.056 28.8827L35.5024 28.106C36.953 28.8312 37.0486 28.8805 37.0545 28.8845V28.8862L37.051 28.8912C37.051 28.8912 37.0477 28.898 37.0459 28.9015C37.0421 28.9088 37.0374 28.9171 37.0324 28.9269C37.022 28.9468 37.0095 28.972 36.9933 29.0015C36.961 29.0604 36.9159 29.1374 36.8592 29.2304C36.7462 29.417 36.5824 29.6681 36.3623 29.9615C35.9227 30.5477 35.2542 31.3114 34.3083 32.0681C32.3943 33.5993 29.4112 35.0532 25.0814 35.0534C20.7517 35.0534 17.7685 33.5993 15.8544 32.0681C14.9085 31.3114 14.24 30.5477 13.8004 29.9615C13.5805 29.6683 13.4167 29.417 13.3035 29.2304C13.2469 29.1374 13.2018 29.0604 13.1695 29.0015C13.1533 28.9722 13.1409 28.9468 13.1305 28.9269C13.1254 28.9173 13.1206 28.9088 13.1169 28.9015C13.1151 28.898 13.1118 28.8912 13.1118 28.8912L13.1084 28.8862V28.8845C13.1152 28.88 13.2172 28.8275 14.6604 28.106L13.1067 28.8827C12.9861 28.6417 12.9235 28.3756 12.9235 28.106V22.8446L22.973 28.4282C23.0186 28.4534 23.0653 28.477 23.1122 28.4994L23.314 28.5962C23.3677 28.6219 23.4232 28.647 23.4785 28.6691C24.6824 29.1471 26.0459 29.0634 27.1897 28.4282L37.2393 22.8446V28.106ZM23.3937 6.214C24.4429 5.63122 25.72 5.63117 26.7691 6.214L41.5101 14.4046L42.2665 14.7828C43.4432 15.3713 44.1866 16.5745 44.1866 17.8901V26.3692C44.1866 27.3283 43.4089 28.1058 42.4498 28.106C41.4905 28.106 40.7129 27.3283 40.7129 26.3692V17.9342L26.7691 25.6823C25.72 26.265 24.4428 26.265 23.3937 25.6823L9.97226 18.226C8.18583 17.2334 8.18583 14.6628 9.97226 13.6702L23.3937 6.214Z" fill="url(#paint0_linear_0_65)"/>
      </g>
      <path id="Vector" d="M42.3861 7.78616C42.3401 7.60793 42.2472 7.44527 42.117 7.31512C41.9869 7.18496 41.8242 7.09206 41.646 7.04608L38.4864 6.23133C38.4325 6.21603 38.385 6.18356 38.3512 6.13886C38.3175 6.09415 38.2992 6.03964 38.2992 5.98361C38.2992 5.92757 38.3175 5.87307 38.3512 5.82836C38.385 5.78365 38.4325 5.75119 38.4864 5.73589L41.646 4.92062C41.8242 4.87468 41.9868 4.78186 42.1169 4.6518C42.2471 4.52174 42.34 4.35919 42.3861 4.18106L43.2008 1.02144C43.216 0.967323 43.2484 0.919645 43.2932 0.885681C43.338 0.851718 43.3926 0.833333 43.4488 0.833333C43.505 0.833333 43.5597 0.851718 43.6044 0.885681C43.6492 0.919645 43.6816 0.967323 43.6968 1.02144L44.511 4.18106C44.557 4.35929 44.6499 4.52194 44.7801 4.6521C44.9102 4.78225 45.0729 4.87515 45.2511 4.92113L48.4107 5.73537C48.465 5.75036 48.513 5.78276 48.5471 5.8276C48.5813 5.87244 48.5998 5.92725 48.5998 5.98361C48.5998 6.03997 48.5813 6.09478 48.5471 6.13962C48.513 6.18446 48.465 6.21686 48.4107 6.23185L45.2511 7.04608C45.0729 7.09206 44.9102 7.18496 44.7801 7.31512C44.6499 7.44527 44.557 7.60793 44.511 7.78616L43.6963 10.9458C43.6811 10.9999 43.6487 11.0476 43.6039 11.0815C43.5591 11.1155 43.5045 11.1339 43.4483 11.1339C43.3921 11.1339 43.3374 11.1155 43.2927 11.0815C43.2479 11.0476 43.2155 10.9999 43.2003 10.9458L42.3861 7.78616Z" fill="#5149E2" stroke="#5149E2" stroke-width="1.66667" stroke-linecap="round" stroke-linejoin="round"/>
      <path id="Vector_2" d="M6.38714 33.8505C6.35679 33.7329 6.29548 33.6256 6.20958 33.5397C6.12368 33.4538 6.01633 33.3924 5.8987 33.3621L3.81341 32.8244C3.77783 32.8143 3.74652 32.7928 3.72422 32.7633C3.70193 32.7338 3.68986 32.6979 3.68986 32.6609C3.68986 32.6239 3.70193 32.5879 3.72422 32.5584C3.74652 32.5289 3.77783 32.5075 3.81341 32.4974L5.8987 31.9593C6.01629 31.929 6.12361 31.8677 6.20951 31.7819C6.2954 31.6961 6.35674 31.5888 6.38714 31.4712L6.92486 29.3859C6.93486 29.3502 6.95626 29.3187 6.98581 29.2963C7.01536 29.2739 7.05143 29.2618 7.08852 29.2618C7.12561 29.2618 7.16168 29.2739 7.19123 29.2963C7.22078 29.3187 7.24219 29.3502 7.25218 29.3859L7.78957 31.4712C7.81991 31.5889 7.88123 31.6962 7.96713 31.7821C8.05303 31.868 8.16038 31.9293 8.27801 31.9597L10.3633 32.497C10.3992 32.5069 10.4308 32.5283 10.4533 32.5579C10.4759 32.5875 10.4881 32.6237 10.4881 32.6609C10.4881 32.6981 10.4759 32.7342 10.4533 32.7638C10.4308 32.7934 10.3992 32.8148 10.3633 32.8247L8.27801 33.3621C8.16038 33.3924 8.05303 33.4538 7.96713 33.5397C7.88123 33.6256 7.81991 33.7329 7.78957 33.8505L7.25184 35.9358C7.24185 35.9715 7.22044 36.003 7.19089 36.0254C7.16134 36.0478 7.12527 36.06 7.08818 36.06C7.05109 36.06 7.01502 36.0478 6.98547 36.0254C6.95592 36.003 6.93452 35.9715 6.92452 35.9358L6.38714 33.8505Z" fill="#63D1F8" stroke="#63D1F8" stroke-width="1.66667" stroke-linecap="round" stroke-linejoin="round"/>
      <g id="Group 10">
        <path id="Vector_3" d="M1.63 26.1719V28.2319" stroke="#63D1F8" stroke-width="1.2" stroke-linecap="round" stroke-linejoin="round"/>
        <path id="Vector_4" d="M2.66006 27.2027H0.6" stroke="#63D1F8" stroke-width="1.2" stroke-linecap="round" stroke-linejoin="round"/>
      </g>
    </g>
    <defs>
      <linearGradient id="paint0_linear_0_65" x1="26.4095" y1="5.77689" x2="11.8773" y2="35.2772" gradientUnits="userSpaceOnUse">
        <stop offset="0.260561" stop-color="#5149E2"/>
        <stop offset="1" stop-color="#68FDFF"/>
      </linearGradient>
    </defs>
  </g>
</svg>
