<svg preserveAspectRatio="none" width="100%" height="100%" overflow="visible" style="display: block;" viewBox="0 0 253 253" fill="none" xmlns="http://www.w3.org/2000/svg">
<g id="Group 13">
<g id="Ellipse 1120" filter="url(#filter0_f_0_32)">
<circle cx="128.926" cy="116.796" r="35.987" fill="var(--fill-0, #68FDFF)"/>
</g>
<g id="Ellipse 1119" filter="url(#filter1_f_0_32)">
<circle cx="126.5" cy="126.5" r="46.5" fill="url(#paint0_linear_0_32)"/>
</g>
<g id="Group 12">
<g id="school-fill">
<path id="Union" d="M138.385 137.229C138.385 137.528 138.315 137.824 138.181 138.091L136.456 137.229C138.067 138.034 138.173 138.089 138.179 138.093V138.095L138.176 138.101C138.176 138.101 138.172 138.108 138.17 138.112C138.166 138.12 138.16 138.13 138.155 138.14C138.143 138.163 138.129 138.191 138.111 138.223C138.076 138.289 138.025 138.374 137.963 138.478C137.837 138.685 137.655 138.964 137.411 139.29C136.922 139.941 136.18 140.789 135.129 141.629C133.003 143.33 129.69 144.945 124.881 144.945C120.072 144.945 116.759 143.33 114.633 141.629C113.582 140.789 112.84 139.941 112.351 139.29C112.107 138.964 111.925 138.685 111.799 138.478C111.737 138.374 111.686 138.289 111.651 138.223C111.633 138.191 111.619 138.163 111.607 138.14C111.602 138.13 111.596 138.12 111.592 138.112C111.59 138.108 111.587 138.101 111.587 138.101L111.583 138.095V138.093C111.59 138.088 111.704 138.03 113.306 137.229L111.581 138.091C111.447 137.824 111.377 137.528 111.377 137.229V131.385L122.539 137.587C122.59 137.615 122.642 137.641 122.694 137.666L122.918 137.773C122.978 137.802 123.039 137.83 123.101 137.854C124.438 138.385 125.952 138.292 127.223 137.587L138.385 131.385V137.229ZM123.007 112.914C124.172 112.266 125.59 112.266 126.756 112.914L143.128 122.011L143.968 122.431C145.275 123.084 146.101 124.421 146.101 125.882V135.3C146.101 136.365 145.237 137.229 144.172 137.229C143.106 137.229 142.243 136.365 142.243 135.3V125.931L126.756 134.537C125.59 135.184 124.172 135.184 123.007 134.537L108.099 126.255C106.115 125.153 106.115 122.298 108.099 121.195L123.007 112.914Z" fill="var(--fill-0, white)"/>
</g>
<path id="Vector" d="M144.099 114.659C144.047 114.461 143.944 114.281 143.8 114.136C143.655 113.992 143.474 113.888 143.277 113.837L139.767 112.932C139.707 112.915 139.655 112.879 139.617 112.83C139.58 112.78 139.559 112.719 139.559 112.657C139.559 112.595 139.58 112.534 139.617 112.485C139.655 112.435 139.707 112.399 139.767 112.382L143.277 111.477C143.474 111.426 143.655 111.322 143.8 111.178C143.944 111.034 144.047 110.853 144.099 110.655L145.003 107.146C145.02 107.086 145.056 107.033 145.106 106.995C145.156 106.957 145.216 106.937 145.279 106.937C145.341 106.937 145.402 106.957 145.452 106.995C145.501 107.033 145.538 107.086 145.554 107.146L146.459 110.655C146.51 110.853 146.613 111.034 146.758 111.178C146.902 111.323 147.083 111.426 147.281 111.477L150.79 112.381C150.85 112.398 150.904 112.434 150.942 112.484C150.979 112.534 151 112.595 151 112.657C151 112.72 150.979 112.781 150.942 112.83C150.904 112.88 150.85 112.916 150.79 112.933L147.281 113.837C147.083 113.888 146.902 113.992 146.758 114.136C146.613 114.281 146.51 114.461 146.459 114.659L145.554 118.169C145.537 118.229 145.501 118.282 145.451 118.319C145.401 118.357 145.341 118.378 145.278 118.378C145.216 118.378 145.155 118.357 145.105 118.319C145.056 118.282 145.02 118.229 145.003 118.169L144.099 114.659Z" fill="var(--fill-0, white)" stroke="var(--stroke-0, white)" stroke-width="1.66667" stroke-linecap="round" stroke-linejoin="round"/>
<path id="Vector_2" d="M104.115 143.609C104.081 143.479 104.013 143.359 103.918 143.264C103.823 143.169 103.703 143.1 103.573 143.067L101.257 142.47C101.217 142.458 101.182 142.435 101.157 142.402C101.133 142.369 101.119 142.329 101.119 142.288C101.119 142.247 101.133 142.207 101.157 142.174C101.182 142.141 101.217 142.118 101.257 142.106L103.573 141.509C103.703 141.475 103.822 141.407 103.918 141.312C104.013 141.216 104.081 141.097 104.115 140.967L104.712 138.65C104.723 138.611 104.747 138.576 104.78 138.551C104.813 138.526 104.853 138.513 104.894 138.513C104.935 138.513 104.975 138.526 105.008 138.551C105.041 138.576 105.065 138.611 105.076 138.65L105.673 140.967C105.706 141.097 105.775 141.216 105.87 141.312C105.965 141.407 106.085 141.475 106.215 141.509L108.531 142.106C108.571 142.117 108.606 142.141 108.631 142.174C108.656 142.206 108.67 142.247 108.67 142.288C108.67 142.329 108.656 142.369 108.631 142.402C108.606 142.435 108.571 142.459 108.531 142.47L106.215 143.067C106.085 143.1 105.965 143.169 105.87 143.264C105.775 143.359 105.706 143.479 105.673 143.609L105.076 145.925C105.064 145.965 105.041 146 105.008 146.025C104.975 146.05 104.935 146.063 104.894 146.063C104.853 146.063 104.813 146.05 104.78 146.025C104.747 146 104.723 145.965 104.712 145.925L104.115 143.609Z" fill="var(--fill-0, white)" stroke="var(--stroke-0, white)" stroke-width="1.66667" stroke-linecap="round" stroke-linejoin="round"/>
<g id="Group 10">
<path id="Vector_3" d="M98.8316 135.08V137.368" stroke="var(--stroke-0, white)" stroke-width="1.66667" stroke-linecap="round" stroke-linejoin="round"/>
<path id="Vector_4" d="M99.9758 136.225H97.6877" stroke="var(--stroke-0, white)" stroke-width="1.66667" stroke-linecap="round" stroke-linejoin="round"/>
</g>
</g>
</g>
<defs>
<filter id="filter0_f_0_32" x="12.9391" y="0.808696" width="231.974" height="231.974" filterUnits="userSpaceOnUse" color-interpolation-filters="sRGB">
<feFlood flood-opacity="0" result="BackgroundImageFix"/>
<feBlend mode="normal" in="SourceGraphic" in2="BackgroundImageFix" result="shape"/>
<feGaussianBlur stdDeviation="40" result="effect1_foregroundBlur_0_32"/>
</filter>
<filter id="filter1_f_0_32" x="0" y="0" width="253" height="253" filterUnits="userSpaceOnUse" color-interpolation-filters="sRGB">
<feFlood flood-opacity="0" result="BackgroundImageFix"/>
<feBlend mode="normal" in="SourceGraphic" in2="BackgroundImageFix" result="shape"/>
<feGaussianBlur stdDeviation="40" result="effect1_foregroundBlur_0_32"/>
</filter>
<linearGradient id="paint0_linear_0_32" x1="126.5" y1="80" x2="97.7913" y2="165.317" gradientUnits="userSpaceOnUse">
<stop stop-color="#5042E1" stop-opacity="0.4"/>
<stop offset="1" stop-color="#5042E1"/>
</linearGradient>
</defs>
</svg>
