<svg preserveAspectRatio="none" width="100%" height="100%" overflow="visible" style="display: block;" viewBox="0 0 28 28" fill="none" xmlns="http://www.w3.org/2000/svg">
<g id="Send Streamline Carbon" clip-path="url(#clip0_0_4)">
<path id="Vector" d="M24.0187 13.2212L4.76875 3.59625C4.61787 3.5208 4.4484 3.49056 4.28074 3.50919C4.11308 3.52782 3.95438 3.59452 3.82375 3.70125C3.699 3.80581 3.60588 3.94309 3.55487 4.09766C3.50386 4.25224 3.49698 4.41798 3.535 4.57625L6.125 14L3.5 23.3975C3.46432 23.5297 3.46016 23.6684 3.48784 23.8024C3.51552 23.9365 3.57428 24.0622 3.65939 24.1695C3.7445 24.2767 3.85358 24.3625 3.97787 24.4199C4.10215 24.4773 4.23818 24.5047 4.375 24.5C4.51197 24.4992 4.64684 24.4662 4.76875 24.4037L24.0187 14.7787C24.1621 14.7053 24.2824 14.5938 24.3663 14.4564C24.4503 14.319 24.4948 14.161 24.4948 14C24.4948 13.839 24.4503 13.681 24.3663 13.5436C24.2824 13.4062 24.1621 13.2947 24.0187 13.2212ZM5.73125 21.9712L7.665 14.875H15.75V13.125H7.665L5.73125 6.02875L21.665 14L5.73125 21.9712Z" fill="var(--fill-0, white)"/>
<g id="_Transparent_Rectangle_">
</g>
</g>
<defs>
<clipPath id="clip0_0_4">
<rect width="28" height="28" fill="white"/>
</clipPath>
</defs>
</svg>
