<svg preserveAspectRatio="none" width="100%" height="100%" overflow="visible" style="display: block;" viewBox="0 0 16 16" fill="none" xmlns="http://www.w3.org/2000/svg">
<g id="Reload Streamline Radix">
<path id="Vector" fill-rule="evenodd" clip-rule="evenodd" d="M1.97292 7.99959C1.97292 4.97516 4.33005 1.97292 7.99959 1.97292C10.9631 1.97292 12.4279 4.16644 13.0521 5.33294H11.1996C10.9051 5.33294 10.6663 5.57173 10.6663 5.86628C10.6663 6.16083 10.9051 6.39961 11.1996 6.39961H14.3996C14.6941 6.39961 14.9329 6.16083 14.9329 5.86628V2.66628C14.9329 2.37173 14.6941 2.13294 14.3996 2.13294C14.1051 2.13294 13.8663 2.37173 13.8663 2.66628V4.60033C13.1148 3.27562 11.3766 0.90625 7.99959 0.90625C3.66591 0.90625 0.90625 4.464 0.90625 7.99959C0.90625 11.5352 3.66591 15.0929 7.99959 15.0929C10.073 15.0929 11.7993 14.2725 13.0284 13.0219C13.6865 12.3522 14.2005 11.5612 14.5509 10.7097C14.663 10.4373 14.533 10.1256 14.2607 10.0135C13.9883 9.90143 13.6766 10.0314 13.5645 10.3038C13.265 11.0316 12.8264 11.7057 12.2677 12.2742C11.2311 13.329 9.77565 14.0263 7.99959 14.0263C4.33005 14.0263 1.97292 11.024 1.97292 7.99959Z" fill="var(--fill-0, black)"/>
</g>
</svg>
