<svg preserveAspectRatio="none" width="100%" height="100%" overflow="visible" style="display: block;" viewBox="0 0 23 23" fill="none" xmlns="http://www.w3.org/2000/svg">
<g id="Puzzle-Piece Streamline Phosphor" clip-path="url(#clip0_0_43)">
<path id="Vector" d="M22.3808 15.5214C22.1389 15.3688 21.8357 15.3507 21.5773 15.4734C20.1251 16.1603 18.4739 15.0174 18.6052 13.4163C18.7244 11.9631 20.2592 11.0769 21.5773 11.7003C22.1313 11.9632 22.7702 11.5591 22.77 10.9459V6.49144C22.77 5.56941 22.0225 4.82196 21.1005 4.82192H17.3211C17.3367 4.68334 17.3443 4.54399 17.3441 4.40455C17.3425 3.36765 16.9137 2.37723 16.1587 1.66654C14.0509 -0.313105 10.5905 0.731382 9.92998 3.54662C9.88489 3.73881 9.85502 3.93427 9.84064 4.13116C9.82461 4.36138 9.8295 4.59258 9.85525 4.82192H6.07484C5.15276 4.82188 4.40533 5.56936 4.40533 6.49144V9.85342C4.26674 9.83789 4.1274 9.83023 3.98795 9.83047C2.95108 9.83214 1.96071 10.2609 1.24994 11.0158C0.533834 11.7723 0.167154 12.794 0.238841 13.8331C0.36252 15.7043 1.84449 17.1992 3.71456 17.3391C3.94477 17.3557 4.17602 17.3508 4.40533 17.3245V20.6823C4.40533 21.6044 5.15279 22.3518 6.07484 22.3518H21.1005C22.0225 22.3518 22.77 21.6044 22.77 20.6823V16.2278C22.7702 15.9412 22.6232 15.6744 22.3808 15.5214ZM21.1005 20.6823H6.07484V16.2278C6.07505 15.6147 5.43616 15.2105 4.88218 15.4734C3.42991 16.1603 1.77874 15.0174 1.91005 13.4163C2.02925 11.9631 3.56406 11.0769 4.88218 11.7003C5.43616 11.9632 6.07505 11.5591 6.07484 10.9459V6.49144H10.9467C11.5599 6.49164 11.964 5.85275 11.7011 5.29878C11.0143 3.84651 12.1571 2.19532 13.7583 2.32665C15.2115 2.44584 16.0976 3.98064 15.4742 5.29878C15.2113 5.85275 15.6154 6.49164 16.2286 6.49144H21.1005V9.85447C20.8712 9.8282 20.6399 9.82331 20.4097 9.83986C17.5253 10.0441 15.9436 13.2943 17.5627 15.6902C18.2628 16.7262 19.4326 17.346 20.6831 17.3433C20.8226 17.3435 20.9619 17.3359 21.1005 17.3203V20.6823Z" fill="var(--fill-0, #5042E1)"/>
</g>
<defs>
<clipPath id="clip0_0_43">
<rect width="23" height="23" fill="white"/>
</clipPath>
</defs>
</svg>
