<svg preserveAspectRatio="none" width="100%" height="100%" overflow="visible" style="display: block;" viewBox="0 0 20 20" fill="none" xmlns="http://www.w3.org/2000/svg">
<g id="asset / telegram svg" clip-path="url(#clip0_0_29)">
<path id="Vector" d="M10 20C15.5228 20 20 15.5228 20 10C20 4.47715 15.5228 0 10 0C4.47715 0 0 4.47715 0 10C0 15.5228 4.47715 20 10 20Z" fill="var(--fill-0, #2AABEE)"/>
<path id="Vector_2" d="M14.625 5.66667L12.7917 14.2917C12.6542 14.9042 12.2917 15.0583 11.7792 14.7667L8.97917 12.7L7.62917 14C7.47917 14.15 7.35417 14.275 7.06667 14.275L7.26667 11.425L12.4542 6.7375C12.6792 6.5375 12.4042 6.425 12.1042 6.625L5.69167 10.6667L2.92917 9.80417C2.32917 9.61667 2.31667 9.20417 3.05417 8.91667L13.8625 4.75C14.3625 4.5625 14.8 4.8625 14.625 5.66667Z" fill="var(--fill-0, white)"/>
</g>
<defs>
<clipPath id="clip0_0_29">
<rect width="20" height="20" fill="white"/>
</clipPath>
</defs>
</svg>
