<svg preserveAspectRatio="none" width="100%" height="100%" overflow="visible" style="display: block;" viewBox="0 0 19.9684 19.9682" fill="none" xmlns="http://www.w3.org/2000/svg">
<g id="startup--shop-rocket-launch-startup">
<path id="Vector" d="M8.14287 6.13953C5.40001 4.2681 2.84287 5.69667 0.700011 7.89667L5.44287 10.7538" stroke="var(--stroke-0, #5042E1)" stroke-width="1.4" stroke-linecap="round" stroke-linejoin="round"/>
<path id="Vector_2" d="M13.8286 11.8254C15.7 14.5682 14.2714 17.1254 12.0715 19.2682L9.21433 14.5254" stroke="var(--stroke-0, #5042E1)" stroke-width="1.4" stroke-linecap="round" stroke-linejoin="round"/>
<path id="Vector_3" d="M5.44288 10.7398L9.2286 14.5255C12.2572 12.7112 15.7 10.9541 17.2714 9.32552C20.6714 5.92552 18.7 1.26838 18.7 1.26838C18.7 1.26838 14.0429 -0.703049 10.6429 2.69694C9.01431 4.26837 7.24288 7.72553 5.44288 10.7398Z" stroke="var(--stroke-0, #5042E1)" stroke-width="1.4" stroke-linecap="round" stroke-linejoin="round"/>
<path id="Vector_4" d="M7.52862 7.15399L12.8143 12.4397" stroke="var(--stroke-0, #5042E1)" stroke-width="1.4" stroke-linecap="round" stroke-linejoin="round"/>
<path id="Vector_5" d="M14.9857 5.69682C15.3802 5.69682 15.7 5.37702 15.7 4.98253C15.7 4.58804 15.3802 4.26824 14.9857 4.26824C14.5913 4.26824 14.2714 4.58804 14.2714 4.98253C14.2714 5.37702 14.5913 5.69682 14.9857 5.69682Z" stroke="var(--stroke-0, #5042E1)" stroke-width="1.4" stroke-linecap="round" stroke-linejoin="round"/>
<path id="Vector_6" d="M5.24287 17.7538C4.4143 18.5538 0.700011 19.2681 0.700011 19.2681C0.700011 19.2681 1.4143 15.5538 2.2143 14.7252C2.41047 14.5148 2.64704 14.346 2.9099 14.2288C3.17275 14.1117 3.45651 14.0487 3.74423 14.0436C4.03195 14.0385 4.31775 14.0915 4.58458 14.1992C4.8514 14.307 5.09378 14.4674 5.29727 14.671C5.50074 14.8744 5.66115 15.1168 5.76894 15.3837C5.87671 15.6504 5.92964 15.9362 5.92455 16.224C5.91948 16.5117 5.85651 16.7954 5.73938 17.0582C5.62227 17.3211 5.4534 17.5577 5.24287 17.7538Z" stroke="var(--stroke-0, #5042E1)" stroke-width="1.4" stroke-linecap="round" stroke-linejoin="round"/>
</g>
</svg>
