<svg preserveAspectRatio="none" width="100%" height="100%" overflow="visible" style="display: block;" viewBox="0 0 20 20" fill="none" xmlns="http://www.w3.org/2000/svg">
<g id="asset / mattermost svg" clip-path="url(#clip0_0_23)">
<path id="Vector" d="M10.0675 -4.52886e-05C5.87334 -0.0283786 1.94917 2.60412 0.530835 6.79412C-1.24 12.0241 1.56417 17.6991 6.79417 19.4691C12.0242 21.24 17.6992 18.4358 19.4692 13.2058C20.9083 8.95579 19.3258 4.41245 15.8767 1.90829L15.9817 4.03079C17.7025 5.93245 18.3817 8.62412 17.525 11.155C16.2467 14.9316 12.03 16.9175 8.10833 15.5891C4.185 14.2616 2.04167 10.1233 3.32084 6.34579C4.18 3.80745 6.36667 2.07829 8.89917 1.62079L10.2675 0.00412138C10.2006 0.00107566 10.1336 -0.000313651 10.0667 -4.52886e-05H10.0675ZM13.0075 0.911621C12.9723 0.910572 12.9373 0.917405 12.905 0.931621L12.9017 0.932455C12.8678 0.945955 12.8369 0.966068 12.8108 0.991621C12.69 1.10995 12.2633 1.68162 12.2633 1.68162L11.3333 2.83329L10.25 4.15412L8.39 6.46745C8.39 6.46745 7.53667 7.53246 7.725 8.84329C7.91334 10.155 8.88834 10.7933 9.645 11.05C10.4008 11.3058 11.5633 11.39 12.51 10.4633C13.4558 9.53662 13.425 8.17162 13.425 8.17162L13.3525 5.20495L13.2942 3.49662L13.255 2.01745C13.255 2.01745 13.2633 1.30412 13.2383 1.13662C13.2338 1.10545 13.2239 1.07529 13.2092 1.04745L13.2042 1.03745L13.1983 1.02829C13.179 0.994263 13.1514 0.965705 13.118 0.945297C13.0846 0.924889 13.0466 0.913301 13.0075 0.911621Z" fill="var(--fill-0, #0058CC)"/>
</g>
<defs>
<clipPath id="clip0_0_23">
<rect width="20" height="20" fill="white"/>
</clipPath>
</defs>
</svg>
