<svg preserveAspectRatio="none" width="100%" height="100%" overflow="visible" style="display: block;" viewBox="0 0 28.7176 34" fill="none" xmlns="http://www.w3.org/2000/svg">
<g id="asset / live footer logo" clip-path="url(#clip0_0_25)">
<path id="Vector" d="M19.607 18.8433V13.9277L14.279 21.8643L0 0V26.9336H2.50415V8.90961L14.279 26.7288L19.607 18.8433Z" fill="var(--fill-0, #3030D0)"/>
<path id="Vector_2" fill-rule="evenodd" clip-rule="evenodd" d="M27.012 28.6234L26.4793 29.0331C24.5079 30.518 22.1103 31.3884 19.4996 31.3884C16.6225 31.3884 14.065 30.3644 12.0404 28.7258L10.7084 31.2349C13.106 32.9758 16.0896 33.9999 19.3397 33.9999C22.5898 33.9999 25.4137 33.027 27.9711 31.2349L28.5039 30.8764L27.012 28.6234Z" fill="var(--fill-0, #3030D0)"/>
<path id="Vector_3" fill-rule="evenodd" clip-rule="evenodd" d="M26.3199 11.572L26.7461 11.8792L28.7174 10.0359L28.1314 9.6262C25.4141 7.83409 22.4304 6.70758 19.3402 6.70758C16.0368 6.70758 13.0532 7.78284 10.6023 9.52385L12.0408 11.6744C14.0122 10.2407 16.4631 9.26783 19.1804 9.26783C21.6312 9.31901 24.1887 10.0871 26.3199 11.572Z" fill="var(--fill-0, #3030D0)"/>
</g>
<defs>
<clipPath id="clip0_0_25">
<rect width="28.7176" height="34" fill="white"/>
</clipPath>
</defs>
</svg>
