<svg preserveAspectRatio="none" width="100%" height="100%" overflow="visible" style="display: block;" viewBox="0 0 166 30" fill="none" xmlns="http://www.w3.org/2000/svg">
<g id="asset / logo-nash-sever.svg">
<path id="Vector" d="M65.5467 7.70573V23.9916H62.5058V16.8736H54.8584V23.9916H51.8175V7.70573H54.8584V14.7112H62.5058V7.70573H65.5467ZM74.5527 19.0586C73.7493 19.0961 73.0735 19.1674 72.5254 19.2726C71.9773 19.3702 71.538 19.4978 71.2077 19.6555C70.8773 19.8132 70.6408 19.9971 70.4981 20.2074C70.3555 20.4176 70.2841 20.6466 70.2841 20.8944C70.2841 21.3824 70.4268 21.7316 70.7121 21.9418C71.0049 22.1521 71.3841 22.2572 71.8496 22.2572C72.4203 22.2572 72.9121 22.1558 73.3251 21.9531C73.7455 21.7429 74.1547 21.4275 74.5527 21.007V19.0586ZM68.178 14.0467C69.507 12.8303 71.1063 12.2221 72.9759 12.2221C73.6517 12.2221 74.2561 12.3347 74.7892 12.56C75.3223 12.7777 75.7728 13.0856 76.1407 13.4835C76.5087 13.874 76.7865 14.3432 76.9742 14.8914C77.1694 15.4395 77.267 16.0402 77.267 16.6934V23.9916H76.0056C75.7428 23.9916 75.5401 23.9541 75.3974 23.879C75.2547 23.7964 75.1421 23.635 75.0595 23.3947L74.8117 22.5613C74.5189 22.8241 74.2336 23.0568 73.9558 23.2596C73.678 23.4548 73.3889 23.62 73.0885 23.7551C72.7882 23.8903 72.4653 23.9916 72.1199 24.0592C71.7821 24.1343 71.4066 24.1718 70.9937 24.1718C70.5056 24.1718 70.0551 24.108 69.6421 23.9804C69.2292 23.8452 68.8725 23.6463 68.5722 23.3835C68.2718 23.1207 68.0391 22.794 67.8739 22.4036C67.7087 22.0132 67.6261 21.5589 67.6261 21.0408C67.6261 20.748 67.6749 20.4589 67.7725 20.1736C67.8701 19.8807 68.0278 19.6029 68.2456 19.3401C68.4708 19.0773 68.7599 18.8296 69.1128 18.5968C69.4657 18.364 69.8974 18.1613 70.408 17.9886C70.9261 17.8159 71.5268 17.677 72.21 17.5719C72.8933 17.4593 73.6742 17.3917 74.5527 17.3692V16.6934C74.5527 15.92 74.3875 15.3494 74.0571 14.9815C73.7268 14.606 73.25 14.4183 72.6268 14.4183C72.1763 14.4183 71.8008 14.4709 71.5005 14.576C71.2077 14.6811 70.9486 14.8013 70.7234 14.9364C70.4981 15.0641 70.2916 15.1804 70.1039 15.2856C69.9237 15.3907 69.721 15.4432 69.4957 15.4432C69.3005 15.4432 69.1353 15.3944 69.0002 15.2968C68.865 15.1917 68.7561 15.0716 68.6736 14.9364L68.178 14.0467ZM95.8688 12.4361V23.9916H79.887V12.4361H82.6689V21.9306H86.487V12.4361H89.2689V21.9306H93.0869V12.4361H95.8688ZM115.707 20.1511C115.873 20.1511 116.019 20.2149 116.147 20.3425L117.341 21.6377C116.68 22.4562 115.865 23.0831 114.896 23.5186C113.935 23.9541 112.779 24.1718 111.428 24.1718C110.219 24.1718 109.13 23.9654 108.161 23.5524C107.2 23.1394 106.378 22.565 105.695 21.8292C105.012 21.0934 104.486 20.2149 104.118 19.1937C103.758 18.1726 103.577 17.0576 103.577 15.8487C103.577 14.6248 103.773 13.506 104.163 12.4924C104.554 11.4712 105.102 10.5927 105.807 9.85692C106.521 9.12108 107.369 8.55044 108.353 8.14498C109.336 7.73201 110.425 7.52553 111.619 7.52553C112.805 7.52553 113.857 7.72075 114.773 8.11119C115.696 8.50163 116.481 9.01221 117.127 9.64292L116.113 11.0508C116.053 11.1409 115.974 11.2197 115.876 11.2873C115.786 11.3549 115.659 11.3886 115.493 11.3886C115.381 11.3886 115.264 11.3586 115.144 11.2985C115.024 11.231 114.893 11.1521 114.75 11.062C114.607 10.9644 114.442 10.8593 114.255 10.7467C114.067 10.634 113.849 10.5327 113.601 10.4426C113.354 10.345 113.064 10.2661 112.734 10.2061C112.411 10.1385 112.036 10.1047 111.608 10.1047C110.879 10.1047 110.211 10.2361 109.603 10.4989C109.002 10.7542 108.484 11.1296 108.049 11.6252C107.613 12.1132 107.275 12.7139 107.035 13.4272C106.795 14.133 106.675 14.9402 106.675 15.8487C106.675 16.7647 106.802 17.5794 107.058 18.2927C107.32 19.006 107.673 19.6067 108.116 20.0947C108.559 20.5828 109.081 20.9582 109.682 21.221C110.283 21.4763 110.928 21.6039 111.619 21.6039C112.032 21.6039 112.404 21.5814 112.734 21.5364C113.072 21.4913 113.38 21.42 113.658 21.3224C113.943 21.2248 114.209 21.1009 114.457 20.9507C114.713 20.793 114.964 20.6016 115.212 20.3763C115.287 20.3087 115.366 20.2562 115.448 20.2186C115.531 20.1736 115.617 20.1511 115.707 20.1511ZM126.179 16.8849C126.179 16.5245 126.127 16.1866 126.022 15.8712C125.924 15.5483 125.774 15.2668 125.571 15.0265C125.368 14.7862 125.109 14.5985 124.794 14.4634C124.486 14.3207 124.126 14.2494 123.713 14.2494C122.909 14.2494 122.275 14.4784 121.809 14.9364C121.351 15.3944 121.058 16.0439 120.931 16.8849H126.179ZM120.875 18.563C120.92 19.1562 121.025 19.6705 121.19 20.106C121.355 20.534 121.573 20.8906 121.843 21.176C122.113 21.4538 122.433 21.664 122.8 21.8067C123.176 21.9418 123.589 22.0094 124.039 22.0094C124.49 22.0094 124.877 21.9568 125.199 21.8517C125.53 21.7466 125.815 21.6302 126.055 21.5026C126.303 21.3749 126.517 21.2586 126.697 21.1534C126.885 21.0483 127.065 20.9958 127.238 20.9958C127.471 20.9958 127.643 21.0821 127.756 21.2548L128.556 22.2684C128.248 22.6289 127.902 22.9329 127.52 23.1807C127.137 23.421 126.735 23.6162 126.314 23.7664C125.901 23.909 125.477 24.0104 125.042 24.0705C124.614 24.1305 124.197 24.1606 123.792 24.1606C122.988 24.1606 122.241 24.0292 121.55 23.7664C120.86 23.4961 120.259 23.1019 119.748 22.5838C119.238 22.0582 118.836 21.4125 118.543 20.6466C118.25 19.8732 118.104 18.9797 118.104 17.9661C118.104 17.1777 118.232 16.4381 118.487 15.7473C118.742 15.049 119.106 14.4446 119.579 13.934C120.06 13.4159 120.642 13.0067 121.325 12.7064C122.016 12.406 122.793 12.2559 123.656 12.2559C124.385 12.2559 125.057 12.3723 125.672 12.605C126.288 12.8378 126.818 13.1794 127.261 13.6299C127.704 14.0729 128.049 14.6211 128.297 15.2743C128.552 15.92 128.68 16.6596 128.68 17.493C128.68 17.9135 128.635 18.1988 128.544 18.349C128.454 18.4917 128.282 18.563 128.026 18.563H120.875ZM135.486 22.0882C136.072 22.0882 136.534 21.9456 136.872 21.6603C137.217 21.3749 137.39 20.9845 137.39 20.4889C137.39 20.2787 137.36 20.0835 137.3 19.9033C137.247 19.7156 137.149 19.5541 137.007 19.419C136.864 19.2838 136.669 19.1787 136.421 19.1036C136.181 19.0285 135.873 18.991 135.498 18.991H133.414V22.0882H135.486ZM133.414 14.2494V17.2791H135.239C135.509 17.2791 135.757 17.2415 135.982 17.1664C136.207 17.0838 136.402 16.9712 136.568 16.8285C136.733 16.6784 136.86 16.5057 136.951 16.3105C137.041 16.1077 137.086 15.8862 137.086 15.646C137.086 15.4733 137.056 15.3043 136.996 15.1391C136.935 14.9664 136.834 14.8163 136.691 14.6886C136.549 14.5535 136.357 14.4484 136.117 14.3733C135.884 14.2907 135.591 14.2494 135.239 14.2494H133.414ZM135.317 12.4361C136.046 12.4361 136.673 12.5074 137.198 12.6501C137.731 12.7927 138.171 12.988 138.516 13.2357C138.861 13.4835 139.117 13.7801 139.282 14.1255C139.447 14.4634 139.53 14.8313 139.53 15.2292C139.53 15.477 139.496 15.7361 139.428 16.0064C139.368 16.2692 139.256 16.5245 139.09 16.7722C138.933 17.02 138.715 17.2453 138.437 17.448C138.159 17.6507 137.806 17.8084 137.378 17.921C137.761 18.0036 138.111 18.12 138.426 18.2702C138.741 18.4128 139.012 18.5968 139.237 18.822C139.462 19.0398 139.635 19.2988 139.755 19.5992C139.883 19.892 139.946 20.2224 139.946 20.5903C139.946 21.176 139.823 21.6828 139.575 22.1108C139.334 22.5387 139.008 22.8916 138.595 23.1695C138.189 23.4473 137.716 23.6538 137.176 23.7889C136.643 23.9241 136.083 23.9916 135.498 23.9916H130.767V12.4361H135.317ZM149.541 16.8849C149.541 16.5245 149.488 16.1866 149.383 15.8712C149.285 15.5483 149.135 15.2668 148.932 15.0265C148.73 14.7862 148.471 14.5985 148.155 14.4634C147.847 14.3207 147.487 14.2494 147.074 14.2494C146.271 14.2494 145.636 14.4784 145.171 14.9364C144.713 15.3944 144.42 16.0439 144.292 16.8849H149.541ZM144.236 18.563C144.281 19.1562 144.386 19.6705 144.551 20.106C144.716 20.534 144.934 20.8906 145.205 21.176C145.475 21.4538 145.794 21.664 146.162 21.8067C146.537 21.9418 146.95 22.0094 147.401 22.0094C147.851 22.0094 148.238 21.9568 148.561 21.8517C148.891 21.7466 149.176 21.6302 149.417 21.5026C149.665 21.3749 149.879 21.2586 150.059 21.1534C150.246 21.0483 150.427 20.9958 150.599 20.9958C150.832 20.9958 151.005 21.0821 151.117 21.2548L151.917 22.2684C151.609 22.6289 151.264 22.9329 150.881 23.1807C150.498 23.421 150.096 23.6162 149.676 23.7664C149.263 23.909 148.839 24.0104 148.403 24.0705C147.975 24.1305 147.558 24.1606 147.153 24.1606C146.35 24.1606 145.602 24.0292 144.912 23.7664C144.221 23.4961 143.62 23.1019 143.11 22.5838C142.599 22.0582 142.197 21.4125 141.905 20.6466C141.612 19.8732 141.465 18.9797 141.465 17.9661C141.465 17.1777 141.593 16.4381 141.848 15.7473C142.104 15.049 142.468 14.4446 142.941 13.934C143.421 13.4159 144.003 13.0067 144.686 12.7064C145.377 12.406 146.154 12.2559 147.018 12.2559C147.746 12.2559 148.418 12.3723 149.034 12.605C149.65 12.8378 150.179 13.1794 150.622 13.6299C151.065 14.0729 151.41 14.6211 151.658 15.2743C151.913 15.92 152.041 16.6596 152.041 17.493C152.041 17.9135 151.996 18.1988 151.906 18.349C151.816 18.4917 151.643 18.563 151.388 18.563H144.236ZM156.911 20.9958C157.226 21.3787 157.568 21.649 157.935 21.8067C158.311 21.9644 158.716 22.0432 159.152 22.0432C159.572 22.0432 159.951 21.9644 160.289 21.8067C160.627 21.649 160.913 21.4087 161.145 21.0859C161.386 20.763 161.57 20.3575 161.697 19.8695C161.825 19.3739 161.889 18.792 161.889 18.1238C161.889 17.448 161.832 16.8774 161.72 16.4118C161.615 15.9388 161.461 15.5559 161.258 15.263C161.055 14.9702 160.807 14.7562 160.515 14.6211C160.229 14.4859 159.903 14.4183 159.535 14.4183C158.957 14.4183 158.465 14.5422 158.059 14.79C157.654 15.0303 157.271 15.3719 156.911 15.8149V20.9958ZM156.764 14.0129C157.237 13.4798 157.774 13.048 158.375 12.7176C158.975 12.3873 159.681 12.2221 160.492 12.2221C161.123 12.2221 161.697 12.3535 162.215 12.6163C162.741 12.8791 163.191 13.262 163.567 13.7651C163.95 14.2606 164.243 14.8763 164.445 15.6122C164.656 16.3405 164.761 17.1777 164.761 18.1238C164.761 18.9872 164.644 19.7869 164.412 20.5227C164.179 21.2586 163.845 21.8968 163.409 22.4374C162.981 22.978 162.459 23.4022 161.844 23.7101C161.235 24.0104 160.552 24.1606 159.794 24.1606C159.148 24.1606 158.596 24.063 158.138 23.8678C157.68 23.665 157.271 23.3872 156.911 23.0343V27.7647H154.129V12.4361H155.829C156.19 12.4361 156.426 12.605 156.539 12.9429L156.764 14.0129Z" fill="var(--fill-0, #161616)"/>
<path id="Vector_2" d="M2.00012 13.8361C2.39482 14.2308 8.57845 24.0325 11.6209 28.884" stroke="var(--stroke-0, #2EBB91)" stroke-width="2.96025"/>
<path id="Vector_3" d="M10.634 13.8361L16.3078 28.3907" stroke="var(--stroke-0, #2EADBF)" stroke-width="2.96025"/>
<path id="Vector_4" d="M17.7882 7.42223L20.2551 25.6771" stroke="var(--stroke-0, #3A8BC6)" stroke-width="2.96025"/>
<path id="Vector_5" d="M23.2153 1.00842C23.4127 1.79782 24.7777 18.9344 25.4355 27.404" stroke="var(--stroke-0, #3A48C6)" stroke-width="2.96025"/>
<path id="Vector_6" d="M29.8757 10.3826V28.8842" stroke="var(--stroke-0, #6F3AC6)" stroke-width="2.96025"/>
<path id="Vector_7" d="M37.7698 7.66896L34.5629 25.4305" stroke="var(--stroke-0, #AA3AC6)" stroke-width="2.96025"/>
</g>
</svg>
