<svg preserveAspectRatio="none" width="100%" height="100%" overflow="visible" style="display: block;" viewBox="0 0 40.1796 47.5704" fill="none" xmlns="http://www.w3.org/2000/svg">
<g id="Group">
<path id="Vector" d="M27.4327 26.3642V19.4866L19.9782 30.591L0 0V37.6836H3.50363V12.4657L19.9782 37.397L27.4327 26.3642Z" fill="var(--fill-0, #3030D0)"/>
<path id="Vector_2" fill-rule="evenodd" clip-rule="evenodd" d="M37.7933 40.0479L37.0479 40.621C34.2897 42.6986 30.9351 43.9165 27.2824 43.9165C23.257 43.9165 19.6788 42.4837 16.8461 40.1911L14.9824 43.7016C18.337 46.1374 22.5115 47.5702 27.0588 47.5702C31.6061 47.5702 35.557 46.209 39.1352 43.7016L39.8806 43.2001L37.7933 40.0479Z" fill="var(--fill-0, #3030D0)"/>
<path id="Vector_3" fill-rule="evenodd" clip-rule="evenodd" d="M36.8249 16.1907L37.4213 16.6206L40.1794 14.0415L39.3594 13.4683C35.5576 10.9609 31.3831 9.38477 27.0594 9.38477C22.4376 9.38477 18.2631 10.8892 14.834 13.3251L16.8467 16.334C19.6049 14.328 23.034 12.9669 26.8358 12.9669C30.2649 13.0385 33.8431 14.1131 36.8249 16.1907Z" fill="var(--fill-0, #3030D0)"/>
<g id="Vector_4">
</g>
<g id="Vector_5">
</g>
</g>
</svg>
