<svg xmlns="http://www.w3.org/2000/svg" width="1503" height="254" viewBox="0 0 1503 254" fill="none">
  <g clip-path="url(#clip0_3714_27)">
    <mask id="mask0_3714_27" style="mask-type:luminance" maskUnits="userSpaceOnUse" x="0" y="0" width="1503" height="254">
      <path d="M1503 0H0V254H1503V0Z" fill="white" />
    </mask>
    <g mask="url(#mask0_3714_27)">
      <path d="M131.647 139.879V105.535L95.7757 160.986L-0.358887 8.22815V196.403H16.5005V70.476L95.7757 194.972L131.647 139.879Z" fill="#4874E0" />
      <path fill-rule="evenodd" clip-rule="evenodd" d="M181.508 208.208L177.921 211.07C164.648 221.445 148.506 227.527 130.93 227.527C111.559 227.527 94.341 220.372 80.71 208.924L71.7422 226.454C87.8842 238.617 107.972 245.772 129.853 245.772C151.735 245.772 170.746 238.975 187.965 226.454L191.552 223.949L181.508 208.208Z" fill="#1F46B6" />
      <path fill-rule="evenodd" clip-rule="evenodd" d="M176.844 89.0789L179.714 91.2254L192.986 78.3465L189.04 75.4845C170.746 62.9634 150.658 55.093 129.853 55.093C107.613 55.093 87.5251 62.6056 71.0244 74.769L80.7096 89.7944C93.9819 79.7775 110.483 72.9803 128.777 72.9803C145.278 73.338 162.496 78.7042 176.844 89.0789Z" fill="#1F46B6" />
      <path d="M308.851 69.7606V176.727H321.047V113.406L362.299 177.085L403.909 113.406V176.727H416.464V69.7606L361.94 153.473L308.851 69.7606Z" fill="#4874E0" />
      <path d="M513.316 119.845H452.335V130.577H513.316V119.845Z" fill="#4874E0" />
      <path d="M513.316 73.338H452.335V84.0704H513.316V73.338Z" fill="#4874E0" />
      <path d="M513.316 166.352H452.335V177.085H513.316V166.352Z" fill="#4874E0" />
      <path d="M672.584 71.5493H660.388V180.662L729.978 106.251V179.231H742.174L742.891 70.1183L672.584 147.392V71.5493Z" fill="#4874E0" />
      <path d="M628.104 147.034L592.591 73.338L581.471 78.3465L617.701 152.042L628.104 147.034Z" fill="#4874E0" />
      <path d="M649.626 166.352H531.251V177.085H649.626V166.352Z" fill="#4874E0" />
      <path d="M814.275 69.7606L757.24 176.727H771.229L813.557 96.5915L837.232 143.814H811.046V156.693H843.33L854.092 177.085H868.081L814.275 69.7606Z" fill="#4874E0" />
      <path d="M974.977 85.8591C983.227 85.8591 992.554 88.3634 999.728 93.7296L1002.24 95.876L1011.57 86.9324L1007.98 84.4282C997.935 77.631 986.815 73.338 975.336 73.338C945.921 73.338 922.247 96.5915 922.247 125.211C922.247 153.831 945.921 177.084 975.336 177.084C987.532 177.084 997.935 173.507 1007.62 166.71L1010.85 164.563L1003.32 153.473L1000.09 155.977C993.271 161.344 985.021 164.206 975.695 164.206C953.454 164.206 935.519 146.318 935.519 124.854C934.801 114.479 939.106 104.462 946.28 96.9493C954.172 90.5098 963.857 85.8591 974.977 85.8591Z" fill="#1F46B6" />
      <path d="M1159 73.338H1112.36V86.5746H1157.56C1166.89 86.9324 1174.06 94.0873 1174.06 103.031C1174.06 111.975 1166.89 119.487 1158.28 119.487H1113.44V181.02H1127.07V132.724H1158.28C1174.78 132.008 1187.69 119.487 1187.69 103.746C1188.05 96.2338 1185.18 89.4366 1179.44 83.7127C1174.78 77.2732 1166.89 74.0535 1159 73.338Z" fill="#1F46B6" />
      <path d="M1258.36 121.276C1261.95 115.91 1264.1 109.113 1264.1 103.389C1264.1 87.2901 1252.26 74.769 1236.48 73.6957H1205.63V86.9324H1236.48C1245.45 87.2901 1252.26 94.445 1252.26 103.389C1252.26 112.332 1244.01 120.918 1236.12 120.918H1206.35V181.02H1210.65H1257.64C1273.42 180.304 1284.9 168.141 1284.9 151.327C1283.83 135.586 1273.07 122.707 1258.36 121.276ZM1271.27 150.969C1271.27 159.913 1264.46 167.425 1255.49 167.425H1217.47V134.513H1255.49C1264.46 135.586 1271.27 142.383 1271.27 150.969Z" fill="#1F46B6" />
      <path d="M1483.99 155.977C1476.46 161.701 1468.21 164.206 1459.24 164.206C1437 164.206 1419.06 146.318 1419.06 124.854C1419.06 103.746 1437.36 85.5014 1459.24 85.5014C1467.49 85.5014 1476.81 88.0056 1483.99 93.3718L1486.5 95.5183L1495.83 86.5747L1492.24 84.0704C1482.19 77.2732 1471.07 72.9803 1459.6 72.9803C1430.18 72.9803 1406.51 96.2338 1406.51 124.854C1406.51 153.831 1430.18 176.727 1459.6 176.727C1471.79 176.727 1482.19 173.149 1491.88 166.352L1495.11 164.206L1487.58 153.831L1483.99 155.977Z" fill="#1F46B6" />
      <path d="M1315.04 71.907H1302.48V177.085L1371.71 105.177V175.654H1384.27L1384.63 69.7606L1314.68 144.887L1315.04 71.907Z" fill="#1F46B6" />
      <path d="M1083.67 119.845H1026.27V130.577H1083.67V119.845Z" fill="#1F46B6" />
      <path d="M1083.67 73.338H1026.27V84.0704H1083.67V73.338Z" fill="#1F46B6" />
      <path d="M1083.67 166.352H1026.27V177.085H1083.67V166.352Z" fill="#1F46B6" />
    </g>
  </g>
  <defs>
    <clipPath id="clip0_3714_27">
      <rect width="1503" height="254" fill="white" />
    </clipPath>
  </defs>
</svg>
